<svg id="visual" viewBox="0 0 900 600" width="900" height="600" xmlns="http://www.w3.org/2000/svg"
    xmlns:xlink="http://www.w3.org/1999/xlink" version="1.1">
    <path
        d="M0 257L21.5 274.3C43 291.7 86 326.3 128.8 346.3C171.7 366.3 214.3 371.7 257.2 373.7C300 375.7 343 374.3 385.8 371.7C428.7 369 471.3 365 514.2 358.7C557 352.3 600 343.7 642.8 330.5C685.7 317.3 728.3 299.7 771.2 298.8C814 298 857 314 878.5 322L900 330L900 601L878.5 601C857 601 814 601 771.2 601C728.3 601 685.7 601 642.8 601C600 601 557 601 514.2 601C471.3 601 428.7 601 385.8 601C343 601 300 601 257.2 601C214.3 601 171.7 601 128.8 601C86 601 43 601 21.5 601L0 601Z"
        fill="#fa7268"></path>
    <path
        d="M0 388L21.5 392.8C43 397.7 86 407.3 128.8 401.2C171.7 395 214.3 373 257.2 371C300 369 343 387 385.8 381.7C428.7 376.3 471.3 347.7 514.2 344C557 340.3 600 361.7 642.8 372.3C685.7 383 728.3 383 771.2 369.3C814 355.7 857 328.3 878.5 314.7L900 301L900 601L878.5 601C857 601 814 601 771.2 601C728.3 601 685.7 601 642.8 601C600 601 557 601 514.2 601C471.3 601 428.7 601 385.8 601C343 601 300 601 257.2 601C214.3 601 171.7 601 128.8 601C86 601 43 601 21.5 601L0 601Z"
        fill="#f16367"></path>
    <path
        d="M0 432L21.5 427.7C43 423.3 86 414.7 128.8 417.8C171.7 421 214.3 436 257.2 440.2C300 444.3 343 437.7 385.8 432C428.7 426.3 471.3 421.7 514.2 418.2C557 414.7 600 412.3 642.8 412.2C685.7 412 728.3 414 771.2 421.2C814 428.3 857 440.7 878.5 446.8L900 453L900 601L878.5 601C857 601 814 601 771.2 601C728.3 601 685.7 601 642.8 601C600 601 557 601 514.2 601C471.3 601 428.7 601 385.8 601C343 601 300 601 257.2 601C214.3 601 171.7 601 128.8 601C86 601 43 601 21.5 601L0 601Z"
        fill="#e85467"></path>
    <path
        d="M0 468L21.5 459.2C43 450.3 86 432.7 128.8 434.7C171.7 436.7 214.3 458.3 257.2 467.8C300 477.3 343 474.7 385.8 475.5C428.7 476.3 471.3 480.7 514.2 478C557 475.3 600 465.7 642.8 456.3C685.7 447 728.3 438 771.2 442.7C814 447.3 857 465.7 878.5 474.8L900 484L900 601L878.5 601C857 601 814 601 771.2 601C728.3 601 685.7 601 642.8 601C600 601 557 601 514.2 601C471.3 601 428.7 601 385.8 601C343 601 300 601 257.2 601C214.3 601 171.7 601 128.8 601C86 601 43 601 21.5 601L0 601Z"
        fill="#de4467"></path>
    <path
        d="M0 528L21.5 519C43 510 86 492 128.8 481C171.7 470 214.3 466 257.2 473.3C300 480.7 343 499.3 385.8 508.5C428.7 517.7 471.3 517.3 514.2 509.5C557 501.7 600 486.3 642.8 486C685.7 485.7 728.3 500.3 771.2 498.3C814 496.3 857 477.7 878.5 468.3L900 459L900 601L878.5 601C857 601 814 601 771.2 601C728.3 601 685.7 601 642.8 601C600 601 557 601 514.2 601C471.3 601 428.7 601 385.8 601C343 601 300 601 257.2 601C214.3 601 171.7 601 128.8 601C86 601 43 601 21.5 601L0 601Z"
        fill="#d23467"></path>
    <path
        d="M0 554L21.5 553C43 552 86 550 128.8 544.3C171.7 538.7 214.3 529.3 257.2 526.7C300 524 343 528 385.8 528C428.7 528 471.3 524 514.2 522.8C557 521.7 600 523.3 642.8 531C685.7 538.7 728.3 552.3 771.2 550.3C814 548.3 857 530.7 878.5 521.8L900 513L900 601L878.5 601C857 601 814 601 771.2 601C728.3 601 685.7 601 642.8 601C600 601 557 601 514.2 601C471.3 601 428.7 601 385.8 601C343 601 300 601 257.2 601C214.3 601 171.7 601 128.8 601C86 601 43 601 21.5 601L0 601Z"
        fill="#c62368"></path>
</svg>